<?xml version="1.0" standalone="no"?>
<!DOCTYPE svg PUBLIC "-//W3C//DTD SVG 20010904//EN"
 "http://www.w3.org/TR/2001/REC-SVG-20010904/DTD/svg10.dtd">
<svg version="1.0" xmlns="http://www.w3.org/2000/svg"
 width="128.000000pt" height="128.000000pt" viewBox="0 0 128.000000 128.000000"
 preserveAspectRatio="xMidYMid meet">

<g transform="translate(0.000000,128.000000) scale(0.100000,-0.100000)"
fill="#000000" stroke="none">
<path d="M500 1264 c-234 -50 -436 -254 -485 -489 -95 -454 306 -855 760 -760
181 38 349 168 433 335 95 191 95 389 0 580 -129 257 -422 396 -708 334z m230
-240 c74 -22 152 -100 174 -174 34 -113 11 -206 -68 -286 -61 -60 -123 -84
-218 -84 l-58 0 0 79 0 79 65 4 c58 3 69 8 98 36 27 28 32 39 32 82 0 43 -5
54 -33 82 -28 28 -39 33 -82 33 -66 0 -110 -40 -117 -109 l-6 -46 -78 0 -79 0
0 38 c0 151 125 279 276 281 22 1 64 -6 94 -15z m-10 -704 l0 -80 -80 0 -80 0
0 80 0 80 80 0 80 0 0 -80z"/>
</g>
</svg>
